<svg xmlns="http://www.w3.org/2000/svg" width="1600" height="720" viewBox="0 0 1600 720" role="img" aria-labelledby="title desc">
  <title id="title">Azure Enterprise Kubernetes Platform Architecture</title>
  <desc id="desc">Cloud architecture hero showing identity, networking, container registry, AKS, security, databases, monitoring, and DevOps.</desc>
  <defs>
    <linearGradient id="bg" x1="0" y1="0" x2="1" y2="1"><stop offset="0" stop-color="#f8fbff"/><stop offset="0.52" stop-color="#eef6ff"/><stop offset="1" stop-color="#e8fff9"/></linearGradient>
    <linearGradient id="az" x1="0" y1="0" x2="1" y2="1"><stop offset="0" stop-color="#0078d4"/><stop offset="1" stop-color="#00b7c3"/></linearGradient>
    <filter id="s" x="-20%" y="-20%" width="140%" height="150%"><feDropShadow dx="0" dy="18" stdDeviation="15" flood-color="#0b3a68" flood-opacity=".16"/></filter>
    <style>.card{fill:#fff;stroke:#d7e8fb;stroke-width:2;filter:url(#s)}.line{stroke:#3aa7ff;stroke-width:4;stroke-linecap:round;opacity:.72}.dash{stroke:#20c997;stroke-width:3;stroke-dasharray:10 12;stroke-linecap:round;opacity:.7}.label{fill:#173b73;font:700 25px Arial,sans-serif}.small{fill:#4e6b8a;font:500 17px Arial,sans-serif}.az{fill:url(#az)}.navy{fill:#0b1f3a}.node{fill:#e8f5ff;stroke:#78c7ff;stroke-width:2}</style>
  </defs>
  <rect width="1600" height="720" fill="url(#bg)"/>
  <path d="M-40 650 C220 560 270 635 480 570 C760 485 850 565 1090 498 C1280 444 1410 480 1640 382 L1640 760 L-40 760 Z" fill="#dff4ff" opacity=".75"/>
  <circle cx="1270" cy="115" r="210" fill="#d9f0ff" opacity=".45"/><circle cx="260" cy="150" r="170" fill="#e0fff7" opacity=".5"/>
  <path class="line" d="M285 360H530M760 360H1025M670 480V585H1120M1130 365H1330"/><path class="dash" d="M760 245H1010V180H1180M420 245H560"/>
  <g transform="translate(80 90)" filter="url(#s)"><path d="M95 166C38 166 0 128 0 82C0 39 35 5 78 5C102 5 124 15 139 33C162 12 194 0 229 0C292 0 344 48 349 109C388 111 419 143 419 182C419 223 386 256 345 256H95C43 256 0 218 0 166Z" fill="url(#az)"/><circle cx="100" cy="115" r="5" fill="#9ffcff"/><circle cx="168" cy="76" r="5" fill="#9ffcff"/><circle cx="235" cy="105" r="5" fill="#9ffcff"/><circle cx="301" cy="75" r="5" fill="#9ffcff"/><path d="M100 115L168 76L235 105L301 75M168 76L196 152L235 105M196 152L300 170" stroke="#9ffcff" stroke-width="3" fill="none" opacity=".75"/></g>
  <g transform="translate(80 405)"><rect class="card" width="300" height="170" rx="28"/><circle class="az" cx="76" cy="82" r="42"/><path d="M76 48C96 48 112 64 112 84C112 104 96 120 76 120C56 120 40 104 40 84C40 64 56 48 76 48ZM28 145C38 121 56 109 76 109C96 109 114 121 124 145Z" fill="#fff" opacity=".95"/><text class="label" x="150" y="76">Identity</text><text class="small" x="150" y="108">Entra ID and AD DS</text></g>
  <g transform="translate(440 155)"><rect class="card" width="270" height="160" rx="28"/><circle class="node" cx="82" cy="80" r="50"/><path d="M32 80H132M82 30C108 58 108 102 82 130M82 30C56 58 56 102 82 130" stroke="#0078d4" stroke-width="4" fill="none"/><text class="label" x="150" y="70">Network</text><text class="small" x="150" y="102">VNet, subnets, NSG</text></g>
  <g transform="translate(590 270)"><rect class="card" width="420" height="240" rx="34"/><text class="label" x="140" y="58">AKS Platform</text><text class="small" x="140" y="88">Kubernetes workloads</text><path d="M92 48l24 14v28l-24 14l-24-14V62Z" class="az"/><path d="M92 55v42M74 69l36 21M110 69L74 90" stroke="#fff" stroke-width="4" stroke-linecap="round"/><g transform="translate(70 105)"><rect class="node" width="70" height="56" rx="14"/><rect class="node" x="95" width="70" height="56" rx="14"/><rect class="node" x="190" width="70" height="56" rx="14"/><rect class="node" x="47" y="82" width="70" height="56" rx="14"/><rect class="node" x="142" y="82" width="70" height="56" rx="14"/><path d="M35 28H225M82 56V82M177 56V82" stroke="#3aa7ff" stroke-width="4" stroke-linecap="round"/><circle cx="225" cy="28" r="12" fill="#20c997"/></g></g>
  <g transform="translate(790 90)"><rect class="card" width="300" height="155" rx="28"/><rect class="az" x="48" y="50" width="55" height="55" rx="8"/><rect class="az" x="86" y="33" width="55" height="55" rx="8" opacity=".72"/><rect class="az" x="124" y="50" width="55" height="55" rx="8" opacity=".52"/><text class="label" x="195" y="68">ACR</text><text class="small" x="195" y="100">Container images</text></g>
  <g transform="translate(1130 100)"><rect class="card" width="320" height="170" rx="28"/><path d="M112 38l58 27v50c0 31-23 55-58 72c-35-17-58-41-58-72V65Z" class="navy"/><circle cx="112" cy="88" r="14" fill="#99f6ff"/><rect x="106" y="101" width="12" height="32" rx="6" fill="#99f6ff"/><text class="label" x="185" y="78">Security</text><text class="small" x="185" y="110">Key Vault and RBAC</text></g>
  <g transform="translate(1110 465)"><rect class="card" width="310" height="160" rx="28"/><ellipse class="az" cx="82" cy="62" rx="48" ry="18"/><path class="az" d="M34 62v50c0 10 22 22 48 22s48-12 48-22V62c0 10-22 22-48 22S34 72 34 62Z" opacity=".85"/><ellipse cx="82" cy="112" rx="48" ry="18" fill="#67d8ff" opacity=".9"/><text class="label" x="165" y="75">Data</text><text class="small" x="165" y="107">PostgreSQL and storage</text></g>
  <g transform="translate(1215 300)"><rect class="card" width="300" height="145" rx="28"/><rect x="42" y="42" width="95" height="62" rx="10" fill="#0b1f3a"/><path d="M52 82l23-16l23 22l29-33" stroke="#20c997" stroke-width="6" fill="none" stroke-linecap="round"/><rect x="155" y="42" width="92" height="12" rx="6" fill="#7dd3fc"/><rect x="155" y="68" width="62" height="12" rx="6" fill="#b6e6ff"/><rect x="155" y="94" width="78" height="12" rx="6" fill="#20c997" opacity=".75"/><text class="label" x="42" y="128">Monitoring</text></g>
  <g transform="translate(300 540)"><rect class="card" width="470" height="115" rx="28"/><circle class="az" cx="70" cy="58" r="26"/><circle class="az" cx="155" cy="58" r="26" opacity=".82"/><circle class="az" cx="240" cy="58" r="26" opacity=".66"/><path d="M96 58h33M181 58h33" stroke="#3aa7ff" stroke-width="5" stroke-linecap="round"/><rect x="310" y="34" width="86" height="48" rx="14" fill="#20c997"/><text x="330" y="66" fill="#fff" font="700 28px Arial,sans-serif">CI</text><text class="label" x="32" y="100">DevOps Pipeline</text></g>
</svg>
